<?xml version="1.0" encoding="UTF-8"?>
<svg id="Capa_1" data-name="Capa 1" xmlns="http://www.w3.org/2000/svg" viewBox="0 0 1160.49 864.2">
  <defs>
    <style>
      .cls-1 {
        fill: #484b99;
      }

      .cls-2 {
        fill: #ea5837;
      }
    </style>
  </defs>
  <path class="cls-2" d="M175.42,643.23c22.05,0,43.27-.19,64.49.06,19.83.23,21.78,3.15,21.66,30.02-.09,21.39-3.84,25.89-22.6,25.97-34.06.15-68.13-.36-102.18.23-14.76.25-20.75-5.42-20.73-20.3.24-157.61.26-315.21-.04-472.82-.03-14.74,5.17-20.89,20.21-20.64,35.21.58,70.43.44,105.64.07,14.08-.15,20.11,6.3,19.71,19.89-.15,5.19-.15,10.39,0,15.59.42,14.27-5.66,21.23-20.7,20.79-21.28-.63-42.58-.16-65.48-.16v401.31Z"/>
  <path class="cls-2" d="M1017.01,241.92c-22.19,0-43.53-.55-64.82.18-15.94.55-22.03-7.05-21.73-21.86.09-4.62.07-9.23,0-13.85-.2-14.19,5.95-20.9,20.94-20.65,34.04.58,68.1.09,102.14.2,20.93.07,22.34,1.45,22.35,23.03.07,120.62.04,241.23.04,361.85,0,35.78-.37,71.57.16,107.34.23,15.49-5.74,21.72-21.51,21.38-34.03-.73-68.09-.1-102.14-.28-17.65-.09-21.88-5.51-21.98-26.84-.12-25.48,2.11-28.82,20.96-29.13,18.46-.31,36.94-.35,55.4.01,8.61.17,12.45-2.52,12.44-11.81-.24-127.54-.22-255.08-.32-382.62,0-1.61-.86-3.23-1.93-6.96Z"/>
  <path class="cls-1" d="M443.78,193.13v193.02c65.3,0,129.31,0,193.33,0,42.07,0,84.18,1.15,126.2-.3,38.7-1.34,48.8,19.23,48.89,53.32.09,34.9-3.6,64.18-48.58,64.09-93.16-.17-186.32-.03-279.48-.01-11.84,0-23.68,0-38.73,0v190.68c15.67,0,31.59,0,47.51,0,108.19,0,216.38.93,324.55-.41,46.13-.57,48.9,26.83,49.37,61.96.48,36.33-9.56,56.3-50.57,55.97-147.24-1.19-294.51-1.15-441.75.01-37.34.3-49.81-14.59-49.63-51.06,1.05-211.86,1.21-423.73-.13-635.58-.24-38.35,16.65-50.82,51.04-50.77,145.75.19,291.5.52,437.25-.21,44.81-.22,53.96,23.27,54.29,63.11.34,40.97-14.45,56.99-54.96,56.54-105.17-1.18-210.36-.37-315.54-.35-16.3,0-32.6,0-53.07,0Z"/>
</svg>