<?xml version="1.0" encoding="UTF-8"?>
<svg id="Capa_1" data-name="Capa 1" xmlns="http://www.w3.org/2000/svg" viewBox="0 0 1265.4 721.77">
  <defs>
    <style>
      .cls-1 {
        fill: #4a4a99;
      }

      .cls-2 {
        fill: #e85633;
      }
    </style>
  </defs>
  <path class="cls-2" d="M78,615.08c29.16,0,57.57-.02,85.97,0,13.88.02,15.81,2.05,15.87,16.54.03,7.76-.01,15.52-.02,23.28-.01,7.3-3.25,10.95-10.54,10.94-44.03-.09-88.06-.14-132.09.04-6.61.03-9.18-3.36-9.72-9.39-.28-3.15-.12-6.34-.12-9.52,0-190.81,0-381.61,0-572.42q0-18.63,18.33-18.64c39.96,0,79.93-.03,119.89.02,12.51.01,14.14,1.73,14.26,14.58.07,7.76-.14,15.52.05,23.28.23,9.32-3.76,13.35-12.85,13.27-27.77-.26-55.54-.1-83.32-.07-1.65,0-3.31.19-5.71.33v507.77Z"/>
  <path class="cls-2" d="M1188.41,614.56V106.96c-19.73,0-38.93,0-58.13,0-10.5,0-21.01-.26-31.5.08-9.61.31-13.56-4.09-13.04-14.02.44-8.44.29-16.93.04-25.39-.24-7.98,3.15-11.72,10.81-11.71,43.7.05,87.4.07,131.09-.03,7.32-.02,10.59,3.49,10.41,10.92-.05,2.12,0,4.23,0,6.35,0,191.9,0,383.79,0,575.69q0,16.95-16.61,16.96c-39.63,0-79.27,0-118.9,0q-16.75,0-16.76-17.98c0-6.35.35-12.73-.08-19.04-.71-10.34,4.39-13.77,13.41-13.74,27.44.1,54.88.04,82.32.01,2.01,0,4.02-.28,6.94-.49Z"/>
  <g>
    <path class="cls-1" d="M364.2,458.37c0-30.3-.03-60.6.02-90.9.02-11.87,2.28-14.41,13.5-14.45,30.45-.11,60.9-.25,91.35.03,28.61.26,47.65,20.22,47.75,49.75.13,36.99.14,73.99,0,110.98-.11,29.14-18.17,48.37-46.07,48.67-31.12.33-62.25.14-93.38.05-11.84-.03-13.14-1.54-13.15-14.3-.03-29.95-.01-59.89-.01-89.84ZM395.15,530.46c25.18,0,49.22.04,73.26-.02,13.43-.03,17.81-4.77,17.82-19.19.03-35.28.03-70.55,0-105.83-.01-15.21-4.61-20.28-19.35-20.42-21.68-.21-43.36-.08-65.04,0-2.23,0-4.45.68-6.69,1.05v144.41Z"/>
    <path class="cls-1" d="M204.47,473.82v56.65c4.15,0,7.77,0,11.4,0,30.47,0,60.95-.05,91.42.03,12.03.03,14.24,2.84,14.19,17.17-.04,13.46-1.2,14.83-13.74,14.85-40.29.06-80.58-.18-120.87.16-9.66.08-13.33-3.79-13.31-13.67.18-60.64.16-121.29.02-181.93-.02-9.71,3.71-14.21,13.27-14.17,40.63.17,81.26,0,121.89.13,11.01.04,12.82,2.8,12.75,17.36-.06,12.98-1.26,14.48-12.96,14.51-30.81.09-61.62.03-92.43.03-3.63,0-7.26,0-11.52,0v56.92c9.83,0,19.21,0,28.59,0,19.98,0,39.95-.12,59.93.05,11.22.1,13.46,3.19,13.35,17.05-.1,12.58-1.85,14.76-12.97,14.81-25.73.11-51.46.04-77.2.04-3.65,0-7.3,0-11.8,0Z"/>
    <path class="cls-1" d="M1070.56,505.41h-92.16c0,14.43.04,28.74-.01,43.05-.05,13.44-.8,14.08-15.19,14.08-13.8,0-15.34-1.41-15.45-14.32-.06-6.7.48-13.44-.09-20.09-3.54-41.6,3.28-80.88,21.81-118.22,7.07-14.25,11.65-29.87,17.06-44.98,2.98-8.33,8.07-12.27,16.81-12.04,14.55.38,29.12.16,43.67.08,7.21-.04,11.87,2.89,14.64,10.3,12.09,32.34,24.64,64.5,36.79,96.82,1.43,3.8,1.97,8.19,2,12.31.18,26.09-.22,52.19.25,78.27.19,10.61-5.03,12.33-13.33,11.95-8.06-.37-17.09,1.71-16.86-11.72.25-14.78.06-29.56.06-45.48ZM978.46,472.75h91.56c-.88-2.96-1.4-5.26-2.23-7.44-8.53-22.48-17.08-44.95-25.68-67.4-4.48-11.7-16.75-17.32-27.83-12.56-1.6.69-3.11,2.67-3.8,4.42-10.6,27.22-21.06,54.49-32.02,82.98Z"/>
    <path class="cls-1" d="M711.77,442.72c0,24.33.06,48.66-.02,72.98-.09,25.48-18.52,45.9-43.02,46.57-22.67.62-45.38.62-68.04-.09-22.29-.7-41.03-19.3-41.39-42.5-.81-51.81-.43-103.65-.44-155.47,0-12.36,8.83-10.92,16.63-11.27,9.03-.4,14.13,2.99,14.09,13.24-.14,36.67-.05,73.34-.05,110,0,12.69-.16,25.39.08,38.08.21,11.13,4.98,16.07,15.58,16.16,19.64.16,39.27.12,58.91.02,11.94-.06,17.21-5.52,17.23-18.01.07-48.3.02-96.61.04-144.91,0-12.8,1.88-14.54,15.24-14.53,13.35,0,15.14,1.71,15.16,14.64.03,25.03,0,50.07,0,75.1Z"/>
    <path class="cls-1" d="M753.75,457.37c0-18.34-.19-36.67.05-55.01.34-26.26,14.65-45.81,39.28-48.03,24.8-2.24,50.12-2.15,74.9.29,28.08,2.77,42.27,29.72,38.49,60.17-.36,2.94-4.76,6.53-7.96,7.6-4,1.33-8.71.34-13.11.4-6.31.09-9.4-2.93-9.09-9.67.17-3.87.34-7.8-.1-11.63-1.02-8.99-5.42-15.79-14.56-16.03-20.97-.55-41.97-.59-62.94-.05-9.54.24-14.77,6.77-14.81,16.67-.16,37.38-.27,74.75.07,112.13.1,11.51,5.52,16.15,16.85,16.21,17.95.1,35.89.04,53.84.03,17.37,0,21.54-4.27,21.66-22.1.1-13.78,1.5-15.29,14.29-15.39,14.06-.11,15.53,2.27,16.45,17.15,1.72,27.76-20.01,54.39-49.52,52.62-18.9-1.13-37.91-.03-56.87-.26-28.62-.34-46.53-19.08-46.89-49.06-.22-18.69-.04-37.38-.04-56.07Z"/>
  </g>
  <g>
    <path class="cls-1" d="M362.47,321.09c-8.8,0-17.71.92-26.38-.18-24.73-3.12-32.26-24.79-28.2-45.74.48-2.5,8.14-4.99,12.34-4.77,3.66.2,7.53,3.8,10.5,6.77,1.24,1.24.62,4.73.5,7.17-.39,7.94,3.1,11.83,10.76,11.8,13.54-.05,27.09.08,40.63-.07,6.95-.08,10.04-3.71,10.24-11.3.68-25.54.88-25.53-23.92-25.53-9.48,0-18.96.19-28.44-.05-19.37-.49-33.04-14.7-33.5-34.67-.14-5.99-.12-11.99-.02-17.98.37-20.77,13.71-35.09,33.72-35.65,13.87-.39,27.77-.3,41.64-.03,23.52.46,39.19,21.08,34.76,45.24-1.58,8.62-7.96,6.97-13.53,7.2-6.29.26-10.26-1.97-10.89-9.32-1.52-17.88-1.67-17.87-19.33-17.87-10.16,0-20.32-.06-30.47.04-7.7.08-11.46,3.76-11.74,12.31-.82,24.98-.49,25.57,23.32,25.57,9.82,0,19.64-.05,29.46.01,18.71.12,32.78,14.34,33.21,33.66.17,7.4.28,14.82-.08,22.21-.8,16.14-13.72,30.03-29.21,31.08-8.43.57-16.92.1-25.38.1Z"/>
    <path class="cls-1" d="M994.07,245.81c0-13.03-.13-26.05.03-39.08.26-20.86,13.53-35.25,33.46-35.83,14.19-.41,28.4-.38,42.59-.01,20.28.53,33.96,15.29,34.05,36.44.11,26.05.11,52.11,0,78.16-.09,21.05-13.16,35.28-33.11,35.76-14.87.36-29.76.38-44.62,0-19.19-.49-32.04-14.22-32.36-34.25-.22-13.73-.04-27.46-.04-41.19ZM1079.76,246.69c0-12.68-.3-25.36.1-38.03.28-8.7-3.81-12.36-11.42-12.48-12.85-.2-25.7-.13-38.55-.03-7.68.06-11.69,3.63-11.61,12.26.24,25.35.22,50.71,0,76.06-.07,8.02,3.15,11.72,10.79,11.68,13.19-.08,26.38-.03,39.56,0,8.04,0,11.48-3.98,11.21-12.48-.39-12.31-.1-24.65-.1-36.97Z"/>
    <path class="cls-1" d="M197.96,296.18c22.99,0,45.58.2,68.16-.1,9.28-.12,13.26,3.01,13.09,13.53-.15,9.68-3.76,11.98-12.15,11.88-27.42-.34-54.84-.35-82.26,0-8.52.11-12.06-2.52-11.98-12.04.38-41.95.37-83.9.01-125.85-.08-9.78,3.47-13.05,12.55-12.93,27.08.35,54.17.36,81.24,0,9.11-.12,12.43,3.17,12.56,12.93.13,9.87-3.01,12.9-12.28,12.68-22.63-.54-45.28-.18-68.81-.18v37.92c19.25,0,38.45.28,57.63-.13,8.61-.18,13.16,1.98,13.24,12.23.08,10.52-4.28,13.43-13.53,13.23-18.9-.41-37.82-.12-57.48-.12v36.94Z"/>
    <path class="cls-1" d="M667.45,280.91h-61.45c0,9.85-.29,19.56.08,29.25.39,10.04-5.14,11.33-12.96,11.35-7.75.02-11.95-1.87-11.65-11.25.56-17.6,0-35.24.28-52.85.07-4.44.96-9.09,2.5-13.23,7.8-20.9,16.17-41.58,23.86-62.52,2.81-7.65,7.01-11.33,15.06-10.94,9.46.46,19.08-.87,28.36.52,4.69.7,10.99,4.69,12.78,8.92,9.21,21.8,17.75,43.95,25.29,66.44,2.56,7.65,1.85,16.6,2.04,24.97.29,13.03-.25,26.09.19,39.11.29,8.64-3.58,10.9-11.05,10.84-7.61-.06-13.61-.95-13.37-11.06.22-9.47.05-18.96.05-29.53ZM606.49,254.74h60.57c-7.01-18.36-13.41-35.95-20.64-53.17-1.13-2.7-5.97-4.96-9.19-5.1-3.22-.14-8.46,1.75-9.53,4.27-7.44,17.5-14.03,35.4-21.21,53.99Z"/>
    <path class="cls-1" d="M468.03,259.24c0,17.93-.38,34.43.15,50.9.29,9.19-3.64,11.5-11.55,11.37-7.8-.13-13.08-1.59-13.03-11.5.2-42.25.18-84.51,0-126.76-.04-9.11,3.89-12.59,12.32-12.51,21.3.2,42.61-.15,63.9.13,20.49.28,34.78,15.35,35.35,36.73.14,5.28.19,10.57-.01,15.84-.79,20.84-15.06,35.49-35.08,35.74-16.87.21-33.74.04-52.06.04ZM468.4,234.03c16.75,0,32.59-.16,48.43.08,6.37.09,12.8-1.37,13.17-8.32.49-9.26,4.75-19.83-4.26-27.67-.99-.87-2.43-1.67-3.66-1.68-17.78-.11-35.57-.07-53.69-.07v37.66Z"/>
    <path class="cls-1" d="M719.04,246.14c-.01-12.69-.22-25.39.03-38.08.46-23.24,14.15-37.08,36.59-37.24,12.87-.09,25.74-.19,38.6.03,23.43.4,39.72,21.23,35.35,44.93-1.67,9.07-8.49,7.34-14.41,7.51-5.96.18-9.42-2.22-9.99-9.01-1.51-18.12-1.71-18.16-19.46-18.17-9.82,0-19.64.13-29.46-.03-8.76-.15-13.36,4.02-13.38,13.22-.04,24.68,0,49.36-.02,74.05,0,8.52,3.51,13.06,12.24,12.88,12.52-.26,25.06-.2,37.58-.01,8.91.13,13.51-3.85,12.52-13.39-1.1-10.56,3.84-13.22,13.19-13.12,9.32.1,11.39,4.56,11.36,13.09-.09,23.91-13.17,38.26-36.03,38.53-13.54.16-27.09.22-40.63-.03-20.62-.39-33.34-13.36-34.01-34.97-.42-13.38-.08-26.79-.09-40.19Z"/>
    <path class="cls-1" d="M898.96,296.19v-100.08c-9.98,0-19.69-.34-29.36.1-8.65.4-11.22-4.05-11.22-12.19,0-8.42,2.56-13.35,11.62-13.28,27.75.2,55.5.24,83.25-.02,9.54-.09,10.83,5.35,10.94,13.56.11,8.37-2.15,12.48-10.91,11.96-9.39-.56-18.83-.13-29.02-.13v100.08c9.55,0,18.9.26,28.23-.07,9.67-.34,11.73,4.87,11.75,13.88.02,9.02-3.52,11.56-11.56,11.48-27.41-.29-54.82-.31-82.23,0-8.76.1-12.15-3.57-12.1-12.52.05-8.92,3.72-12.96,12.22-12.81,9.09.16,18.18.04,28.4.04Z"/>
  </g>
</svg>